Coordinates
version=1
nRows=15
nColumns=19
inDegrees=yes

Units are S.I. units (second, meters, Newtons, ...)
If the header above contains a line with 'inDegrees', this indicates whether rotational values are in degrees (yes) or radians (no).

endheader
time	pelvis_to_ground_rx	pelvis_to_ground_ry	pelvis_to_ground_rz	pelvis_to_ground_tx	pelvis_to_ground_ty	pelvis_to_ground_tz	left_hip_abduction	left_hip_rotation	left_hip_flexion	left_knee_flexion	left_ankle_flexion	left_subtalar_angle	right_hip_abduction	right_hip_rotation	right_hip_flexion	right_knee_flexion	right_ankle_flexion	right_subtalar_angle
      2.99000000	     85.58497639	     -1.67969499	     -1.62978223	      1.25173999	     -0.70002750	      0.71582906	     -1.29402607	      2.82465425	     38.80230290	    -35.11114996	     -1.26609281	     -7.62318481	     10.82503062	     10.25995537	     -7.04404769	    -21.12960510	      4.33661340	     -2.83768098
      3.00000000	     85.97442171	     -1.84670082	     -1.26599831	      1.26481319	     -0.69885755	      0.71328092	     -0.83664032	      1.44794328	     37.90351587	    -34.11650628	     -1.34872462	     -7.56019108	     10.44883785	      9.70001222	     -7.73136893	    -22.69586921	      4.37385444	     -2.83671173
      3.01000000	     86.48455711	     -1.97638337	     -1.02168321	      1.27803837	     -0.69764803	      0.71091485	     -0.63215213	      0.10682860	     37.14915870	    -33.61104042	     -1.34554926	     -7.65928213	      9.85938073	      8.96261723	     -8.15894321	    -24.42979339	      4.29300295	     -2.81225398
      3.02000000	     87.12431305	     -2.08276082	     -0.88446231	      1.29134398	     -0.69635074	      0.70880984	     -0.66168812	     -1.26050230	     36.47959054	    -33.49054974	     -1.81283264	     -9.58252770	      9.04327113	      8.05701299	     -8.32841930	    -26.32478468	      4.01905497	     -2.33900793
      3.03000000	     87.88351011	     -2.14907394	     -0.86123967	      1.30466981	     -0.69499449	      0.70701787	     -1.02663290	     -2.42740589	     35.96079195	    -33.77606232	     -1.46711917	     -9.96132186	      8.02467864	      6.99033056	     -8.22971589	    -28.35852120	      3.44320316	     -2.28210057
      3.04000000	     88.72381016	     -2.18628243	     -0.91948320	      1.31794707	     -0.69356780	      0.70553007	     -1.69642135	     -3.31557599	     35.56827592	    -34.42126407	     -1.00610234	    -10.71661400	      6.83712648	      5.71348026	     -7.87309067	    -30.54338885	      2.49740566	     -2.23699862
      3.05000000	     89.64912680	     -2.18667581	     -1.04286798	      1.33111803	     -0.69207668	      0.70444526	     -2.59738576	     -4.07727817	     35.18235236	    -35.20543746	     -0.58003524	    -11.48619663	      5.52685512	      4.31165536	     -7.30094448	    -32.83003564	      1.42267141	     -2.32485831
      3.06000000	     90.62587085	     -2.14842759	     -1.19873184	      1.34412869	     -0.69054023	      0.70377934	     -3.69517148	     -4.65615079	     34.76370666	    -36.04667744	     -0.11682372	    -12.22539219	      4.14892747	      2.78333214	     -6.54929721	    -35.19355496	      0.16900876	     -2.54269278
      3.07000000	     91.62254908	     -2.07525230	     -1.40715198	      1.35691416	     -0.68896869	      0.70357552	     -4.91822202	     -5.07389337	     34.30263219	    -36.82539011	      0.38826810	    -12.87243680	      2.76421143	      1.16899546	     -5.60066913	    -37.60594081	     -1.23017598	     -2.91790401
      3.08000000	     92.61850717	     -1.96352382	     -1.63742032	      1.36943059	     -0.68739067	      0.70386134	     -6.20545689	     -5.36801964	     33.73781407	    -37.43375644	      0.91545625	    -13.36950126	      1.42583949	     -0.50325527	     -4.49696371	    -40.02966130	     -2.69042138	     -3.43088048
      3.09000000	     93.58532268	     -1.80287745	     -1.85292730	      1.38164429	     -0.68582732	      0.70464626	     -7.49115577	     -5.58147729	     33.00983439	    -37.78651561	      1.33639178	    -13.65190997	      0.19126830	     -2.19589776	     -3.29568030	    -42.40793747	     -4.34404217	     -4.78794527
      3.10000000	     94.49254730	     -1.63898789	     -2.19887090	      1.39349054	     -0.68426961	      0.70595981	     -8.70656515	     -5.70210356	     32.27782090	    -37.83997449	      1.84291169	    -13.84063509	     -0.89419946	     -3.88785541	     -1.80708906	    -44.76723540	     -5.44369653	     -5.01428669
      3.11000000	     95.32563954	     -1.43994749	     -2.51171068	      1.40499718	     -0.68276266	      0.70774934	     -9.81755161	     -5.79252352	     31.35731561	    -37.55536247	      2.33985166	    -13.87326368	     -1.79446090	     -5.54982581	     -0.24625162	    -47.01389543	     -6.63828607	     -5.67849627
      3.12000000	     96.06692364	     -1.21570508	     -2.80525216	      1.41615457	     -0.68131839	      0.70996478	    -10.79342690	     -5.85546401	     30.28224683	    -36.94313488	      2.69343445	    -13.58350702	     -2.48028075	     -7.13989352	      1.40007289	    -49.12336356	     -7.67408381	     -6.87970750
      3.13000000	     96.69645571	     -0.98211496	     -3.12308910	      1.42695749	     -0.67993028	      0.71255040	    -11.58859740	     -5.94839662	     29.11277580	    -36.01899573	      2.79523096	    -13.50549017	     -2.93238337	     -8.66808833	      3.19283226	    -51.09759597	     -7.83699487	     -7.06913539
